M48
; DRILL file {KiCad (5.1.5)-3} date 12/16/21 11:04:06
; FORMAT={-:-/ absolute / inch / decimal}
; #@! TF.CreationDate,2021-12-16T11:04:06-06:00
; #@! TF.GenerationSoftware,Kicad,Pcbnew,(5.1.5)-3
; #@! TF.FileFunction,Plated,1,2,PTH
FMAT,2
INCH
T1C0.0315
T2C0.0315
T3C0.0354
T4C0.0394
%
G90
G05
T1
X5.48Y-3.02
X5.5784Y-3.02
X5.68Y-3.36
X5.68Y-3.5569
X6.9231Y-2.7
X7.12Y-2.7
X6.4831Y-2.7
X6.68Y-2.7
X6.48Y-2.98
X6.48Y-3.08
X6.48Y-3.18
X6.48Y-3.28
X6.48Y-3.38
X6.48Y-3.48
X6.48Y-3.58
X6.78Y-2.98
X6.78Y-3.08
X6.78Y-3.18
X6.78Y-3.28
X6.78Y-3.38
X6.78Y-3.48
X6.78Y-3.58
X5.54Y-3.36
X5.54Y-3.5569
T2
X7.32Y-2.7
X7.57Y-2.7
T3
X7.8Y-2.8
X7.54Y-3.06
X7.54Y-3.26
X7.14Y-3.64
X7.08Y-3.36
X7.28Y-3.36
T4
X5.8Y-3.06
X5.84Y-3.46
X6.16Y-3.06
X6.32Y-3.38
X6.32Y-3.58
X6.8Y-2.82
X7.66Y-3.64
X7.68Y-3.32
X6.94Y-3.64
X5.34Y-2.7
X5.44Y-2.7
X5.54Y-2.7
X5.64Y-2.7
X5.74Y-2.7
X5.84Y-2.7
X5.94Y-2.7
X6.04Y-2.7
X7.1Y-2.92
X7.2Y-2.92
X7.3Y-2.92
X7.37Y-3.64
X7.57Y-3.64
X5.96Y-3.26
X5.96Y-3.36
X5.96Y-3.46
X5.96Y-3.56
X6.06Y-3.26
X6.06Y-3.36
X6.06Y-3.46
X6.06Y-3.56
X7.11Y-3.18
X7.31Y-3.18
X5.26Y-3.35
X5.26Y-3.45
X5.26Y-3.55
X7.8Y-2.7
X7.8Y-3.18
X7.8Y-3.28
X7.8Y-3.38
X7.8Y-3.48
X7.8Y-3.58
T0
M30
